<svg width="200" height="40" viewBox="0 0 200 40" fill="none" xmlns="http://www.w3.org/2000/svg">
  <path d="M40 20C40 31.0457 31.0457 40 20 40C8.9543 40 0 31.0457 0 20C0 8.9543 8.9543 0 20 0C31.0457 0 40 8.9543 40 20Z" fill="#00256C"/>
  <path d="M20 10L25 20L20 30L15 20L20 10Z" fill="white"/>
  <path d="M50 15H70V25H50V15Z" fill="#00256C"/>
  <path d="M75 15H95V17.5H75V15Z" fill="#00256C"/>
  <path d="M75 21.25H95V23.75H75V21.25Z" fill="#00256C"/>
  <path d="M75 27.5H95V30H75V27.5Z" fill="#00256C"/>
  <path d="M100 15H120V17.5H100V15Z" fill="#00256C"/>
  <path d="M100 21.25H120V23.75H100V21.25Z" fill="#00256C"/>
  <path d="M100 27.5H120V30H100V27.5Z" fill="#00256C"/>
  <path d="M125 15H145V17.5H125V15Z" fill="#00256C"/>
  <path d="M125 21.25H145V23.75H125V21.25Z" fill="#00256C"/>
  <path d="M125 27.5H145V30H125V27.5Z" fill="#00256C"/>
  <path d="M150 15H170V17.5H150V15Z" fill="#00256C"/>
  <path d="M150 21.25H170V23.75H150V21.25Z" fill="#00256C"/>
  <path d="M150 27.5H170V30H150V27.5Z" fill="#00256C"/>
  <path d="M175 15H195V17.5H175V15Z" fill="#00256C"/>
  <path d="M175 21.25H195V23.75H175V21.25Z" fill="#00256C"/>
  <path d="M175 27.5H195V30H175V27.5Z" fill="#00256C"/>
</svg>