<svg xmlns="http://www.w3.org/2000/svg" viewBox="0 0 800 200" width="800" height="200">
  <!-- 대한항공 로고 - 태극 심볼 -->
  <path d="M100 100c0-27.614 22.386-50 50-50s50 22.386 50 50-22.386 50-50 50-50-22.386-50-50z" fill="#00256C" opacity="0.1"/>
  <path d="M150 50c-13.807 0-25 11.193-25 25s11.193 25 25 25 25-11.193 25-25-11.193-25-25-25z" fill="#00256C"/>
  <path d="M150 150c13.807 0 25-11.193 25-25h-50c0 13.807 11.193 25 25 25z" fill="#00256C"/>
  <path d="M150 50c13.807 0 25 11.193 25 25h-50c0-13.807 11.193-25 25-25z" fill="#00256C"/>
  <path d="M150 60c-8.284 0-15 6.716-15 15 0 8.284 6.716 15 15 15 8.284 0 15-6.716 15-15 0-8.284-6.716-15-15-15z" fill="#FFFFFF"/>
  <path d="M150 110c-8.284 0-15 6.716-15 15 0 8.284 6.716 15 15 15 8.284 0 15-6.716 15-15 0-8.284-6.716-15-15-15z" fill="#FFFFFF"/>
  
  <!-- KOREAN AIR 텍스트 -->
  <path d="M250 70h15v60h-15V70zm35 0h15l25 30V70h15v60h-15l-25-30v30h-15V70z" fill="#00256C"/>
  <path d="M360 70h40c11.046 0 20 8.954 20 20s-8.954 20-20 20h-25v20h-15V70zm15 30h20c2.761 0 5-2.239 5-5s-2.239-5-5-5h-20v10z" fill="#00256C"/>
  <path d="M430 70h15v25h30V70h15v60h-15v-25h-30v25h-15V70z" fill="#00256C"/>
  <path d="M510 70h15l25 60h-17l-5-12h-23l-5 12h-15l25-60zm13 38l-8-20-8 20h16z" fill="#00256C"/>
  <path d="M560 70h15v60h-15V70zm35 0h15v50h25v10h-40V70z" fill="#00256C"/>
  
  <path d="M650 70h15l25 30V70h15v60h-15l-25-30v30h-15V70z" fill="#00256C"/>
  
  <path d="M720 70h15l25 60h-17l-5-12h-23l-5 12h-15l25-60zm13 38l-8-20-8 20h16z" fill="#00256C"/>
  <path d="M770 70h15v60h-15V70z" fill="#00256C"/>
  <path d="M800 70h15v60h-15V70z" fill="#00256C"/>
</svg>